<svg xmlns="http://www.w3.org/2000/svg" viewBox="0 0 1200 720"><defs><linearGradient id="sky" x1="0" y1="0" x2="1" y2="1"><stop stop-color="#D7E5F2"/><stop offset="1" stop-color="#FFE7C7"/></linearGradient><filter id="soft"><feGaussianBlur stdDeviation="16"/></filter></defs><rect width="1200" height="720" fill="url(#sky)"/><circle cx="975" cy="125" r="75" fill="#E7A259" opacity=".9"/><g transform="translate(465 85) scale(0.72)" fill="#fff" opacity="0.62"><ellipse cx="85" cy="50" rx="82" ry="30"/><circle cx="58" cy="35" r="34"/><circle cx="104" cy="30" r="42"/></g><path d="M0 430Q260 380 520 430T1200 405V720H0Z" fill="#4E708B" opacity=".17"/><path d="M0 625h1200" stroke="#4E708B" stroke-width="14" opacity=".32"/><g transform="translate(130 410)"><rect x="0" y="0" width="455" height="175" rx="30" fill="#4E708B" opacity=".84"/><rect x="38" y="28" width="280" height="76" rx="14" fill="#fff" opacity=".68"/><path d="M330 30h78l30 74H330z" fill="#fff" opacity=".68"/><circle cx="105" cy="170" r="42" fill="#26333A"/><circle cx="360" cy="170" r="42" fill="#26333A"/><circle cx="105" cy="170" r="17" fill="#E7A259"/><circle cx="360" cy="170" r="17" fill="#E7A259"/></g><g transform="translate(800 548)"><path d="M0 0h175v18H0z" fill="#4E708B" opacity=".65"/><path d="M20-8h135l-15-72H35z" fill="#fff" opacity=".85"/><circle cx="88" cy="-44" r="24" fill="#E7A259"/></g></svg>