<svg xmlns="http://www.w3.org/2000/svg" viewBox="0 0 1200 720"><defs><linearGradient id="sky" x1="0" y1="0" x2="1" y2="1"><stop stop-color="#DCEBFF"/><stop offset="1" stop-color="#FFF0D9"/></linearGradient><filter id="soft"><feGaussianBlur stdDeviation="16"/></filter></defs><rect width="1200" height="720" fill="url(#sky)"/><!-- human-free-scene --><circle cx="980" cy="125" r="72" fill="#F0A75A" opacity=".92"/><g transform="translate(354 166) scale(0.75)" fill="#fff" opacity="0.62"><ellipse cx="85" cy="50" rx="82" ry="30"/><circle cx="58" cy="35" r="34"/><circle cx="104" cy="30" r="42"/></g><path d="M0 470 Q210 426 420 468 T850 455 T1200 440V720H0Z" fill="#4D73A6" opacity=".18"/><g fill="#4D73A6" opacity=".75" transform="translate(70 0)"><path d="M0 505h140V720H0zM155 455h150v265H155zM322 515h115v205H322zM455 430h170v290H455zM646 485h126v235H646zM790 448h175v272H790zM985 510h215v210H985z"/></g><path d="M0 650h1200v70H0z" fill="#4D73A6" opacity=".3"/></svg>