<svg xmlns="http://www.w3.org/2000/svg" viewBox="0 0 1200 720"><defs><linearGradient id="sky" x1="0" y1="0" x2="1" y2="1"><stop stop-color="#385D69"/><stop offset="1" stop-color="#172B3B"/></linearGradient><filter id="soft"><feGaussianBlur stdDeviation="16"/></filter></defs><rect width="1200" height="720" fill="url(#sky)"/><circle cx="204" cy="151" r="4" fill="#fff" opacity="0.45"/><circle cx="287" cy="198" r="2.5" fill="#fff" opacity="0.63"/><circle cx="370" cy="245" r="2.5" fill="#fff" opacity="0.81"/><circle cx="453" cy="292" r="2.5" fill="#fff" opacity="0.45"/><circle cx="536" cy="69" r="4" fill="#fff" opacity="0.63"/><circle cx="619" cy="116" r="2.5" fill="#fff" opacity="0.81"/><circle cx="702" cy="163" r="2.5" fill="#fff" opacity="0.45"/><circle cx="785" cy="210" r="2.5" fill="#fff" opacity="0.63"/><circle cx="868" cy="257" r="4" fill="#fff" opacity="0.81"/><circle cx="951" cy="304" r="2.5" fill="#fff" opacity="0.45"/><circle cx="1034" cy="81" r="2.5" fill="#fff" opacity="0.63"/><circle cx="1117" cy="128" r="2.5" fill="#fff" opacity="0.81"/><circle cx="80" cy="175" r="4" fill="#fff" opacity="0.45"/><circle cx="330" cy="146" r="64" fill="#7FD0C7"/><circle cx="358" cy="124" r="64" fill="#385D69"/><g fill="#101827" opacity=".72"><path d="M0 470h150v250H0zM165 390h180v330H165zM360 485h130v235H360zM510 420h210v300H510zM740 500h130v220H740zM890 370h190v350H890zM1095 460h105v260H1095z"/></g><g fill="#7FD0C7" opacity=".9"><rect x="45" y="430" width="20" height="13" rx="3"/><rect x="142" y="485" width="20" height="13" rx="3"/><rect x="239" y="540" width="20" height="13" rx="3"/><rect x="336" y="595" width="20" height="13" rx="3"/><rect x="433" y="430" width="20" height="13" rx="3"/><rect x="530" y="485" width="20" height="13" rx="3"/><rect x="627" y="540" width="20" height="13" rx="3"/><rect x="724" y="595" width="20" height="13" rx="3"/><rect x="821" y="430" width="20" height="13" rx="3"/><rect x="918" y="485" width="20" height="13" rx="3"/><rect x="1015" y="540" width="20" height="13" rx="3"/><rect x="1112" y="595" width="20" height="13" rx="3"/><rect x="109" y="430" width="20" height="13" rx="3"/><rect x="206" y="485" width="20" height="13" rx="3"/><rect x="303" y="540" width="20" height="13" rx="3"/><rect x="400" y="595" width="20" height="13" rx="3"/><rect x="497" y="430" width="20" height="13" rx="3"/><rect x="594" y="485" width="20" height="13" rx="3"/><rect x="691" y="540" width="20" height="13" rx="3"/><rect x="788" y="595" width="20" height="13" rx="3"/><rect x="885" y="430" width="20" height="13" rx="3"/><rect x="982" y="485" width="20" height="13" rx="3"/></g><g transform="translate(245 465)"><path d="M0 120h350v135H0z" fill="#7FD0C7" opacity=".48"/><path d="M70 35h170l50 110H20z" fill="#7FD0C7" opacity=".95"/><rect x="135" y="145" width="25" height="110" fill="#7FD0C7" opacity=".8"/></g></svg>