<svg xmlns="http://www.w3.org/2000/svg" viewBox="0 0 1200 720"><defs><linearGradient id="sky" x1="0" y1="0" x2="1" y2="1"><stop stop-color="#475476"/><stop offset="1" stop-color="#20263D"/></linearGradient><filter id="soft"><feGaussianBlur stdDeviation="16"/></filter></defs><rect width="1200" height="720" fill="url(#sky)"/><circle cx="163" cy="122" r="4" fill="#fff" opacity="0.45"/><circle cx="246" cy="169" r="2.5" fill="#fff" opacity="0.63"/><circle cx="329" cy="216" r="2.5" fill="#fff" opacity="0.81"/><circle cx="412" cy="263" r="2.5" fill="#fff" opacity="0.45"/><circle cx="495" cy="40" r="4" fill="#fff" opacity="0.63"/><circle cx="578" cy="87" r="2.5" fill="#fff" opacity="0.81"/><circle cx="661" cy="134" r="2.5" fill="#fff" opacity="0.45"/><circle cx="744" cy="181" r="2.5" fill="#fff" opacity="0.63"/><circle cx="827" cy="228" r="4" fill="#fff" opacity="0.81"/><circle cx="910" cy="275" r="2.5" fill="#fff" opacity="0.45"/><circle cx="993" cy="52" r="2.5" fill="#fff" opacity="0.63"/><circle cx="1076" cy="99" r="2.5" fill="#fff" opacity="0.81"/><circle cx="1159" cy="146" r="4" fill="#fff" opacity="0.45"/><circle cx="740" cy="137" r="64" fill="#F2C66D"/><circle cx="768" cy="115" r="64" fill="#475476"/><g fill="#101827" opacity=".72"><path d="M0 470h150v250H0zM165 390h180v330H165zM360 485h130v235H360zM510 420h210v300H510zM740 500h130v220H740zM890 370h190v350H890zM1095 460h105v260H1095z"/></g><g fill="#F2C66D" opacity=".9"><rect x="45" y="430" width="20" height="13" rx="3"/><rect x="142" y="485" width="20" height="13" rx="3"/><rect x="239" y="540" width="20" height="13" rx="3"/><rect x="336" y="595" width="20" height="13" rx="3"/><rect x="433" y="430" width="20" height="13" rx="3"/><rect x="530" y="485" width="20" height="13" rx="3"/><rect x="627" y="540" width="20" height="13" rx="3"/><rect x="724" y="595" width="20" height="13" rx="3"/><rect x="821" y="430" width="20" height="13" rx="3"/><rect x="918" y="485" width="20" height="13" rx="3"/><rect x="1015" y="540" width="20" height="13" rx="3"/><rect x="1112" y="595" width="20" height="13" rx="3"/><rect x="109" y="430" width="20" height="13" rx="3"/><rect x="206" y="485" width="20" height="13" rx="3"/><rect x="303" y="540" width="20" height="13" rx="3"/><rect x="400" y="595" width="20" height="13" rx="3"/><rect x="497" y="430" width="20" height="13" rx="3"/><rect x="594" y="485" width="20" height="13" rx="3"/><rect x="691" y="540" width="20" height="13" rx="3"/><rect x="788" y="595" width="20" height="13" rx="3"/><rect x="885" y="430" width="20" height="13" rx="3"/><rect x="982" y="485" width="20" height="13" rx="3"/></g><g transform="translate(650 465)"><path d="M0 120h350v135H0z" fill="#A9A3E8" opacity=".48"/><path d="M70 35h170l50 110H20z" fill="#F2C66D" opacity=".95"/><rect x="135" y="145" width="25" height="110" fill="#A9A3E8" opacity=".8"/></g></svg>