<svg xmlns="http://www.w3.org/2000/svg" viewBox="0 0 1200 720"><defs><linearGradient id="sky" x1="0" y1="0" x2="1" y2="1"><stop stop-color="#E7F2EF"/><stop offset="1" stop-color="#FFF1E2"/></linearGradient><filter id="soft"><feGaussianBlur stdDeviation="16"/></filter></defs><rect width="1200" height="720" fill="url(#sky)"/><rect x="70" y="88" width="1060" height="500" rx="30" fill="#fff" opacity=".34"/><path d="M70 142h1060" stroke="#477B72" stroke-width="10" opacity=".12"/><circle cx="112" cy="116" r="8" fill="#D59A56" opacity=".86"/><circle cx="142" cy="116" r="8" fill="#477B72" opacity=".28"/><circle cx="172" cy="116" r="8" fill="#477B72" opacity=".28"/><g transform="translate(120 170)"><rect width="190" height="112" rx="18" fill="#fff" opacity=".78"/><circle cx="32" cy="34" r="10" fill="#477B72" opacity=".82"/><rect x="54" y="25" width="102" height="14" rx="7" fill="#477B72" opacity=".28"/><rect x="24" y="65" width="142" height="22" rx="11" fill="#477B72" opacity=".16"/></g><g transform="translate(355 170)"><rect width="190" height="112" rx="18" fill="#fff" opacity=".78"/><circle cx="32" cy="34" r="10" fill="#477B72" opacity=".82"/><rect x="54" y="25" width="102" height="14" rx="7" fill="#477B72" opacity=".28"/><rect x="24" y="65" width="142" height="22" rx="11" fill="#477B72" opacity=".16"/></g><g transform="translate(590 170)"><rect width="190" height="112" rx="18" fill="#fff" opacity=".78"/><circle cx="32" cy="34" r="10" fill="#D59A56" opacity=".82"/><rect x="54" y="25" width="102" height="14" rx="7" fill="#477B72" opacity=".28"/><rect x="24" y="65" width="142" height="22" rx="11" fill="#D59A56" opacity=".42"/></g><g transform="translate(825 170)"><rect width="190" height="112" rx="18" fill="#fff" opacity=".78"/><circle cx="32" cy="34" r="10" fill="#477B72" opacity=".82"/><rect x="54" y="25" width="102" height="14" rx="7" fill="#477B72" opacity=".28"/><rect x="24" y="65" width="142" height="22" rx="11" fill="#477B72" opacity=".16"/></g><g transform="translate(120 320)"><rect width="190" height="112" rx="18" fill="#fff" opacity=".78"/><circle cx="32" cy="34" r="10" fill="#477B72" opacity=".82"/><rect x="54" y="25" width="102" height="14" rx="7" fill="#477B72" opacity=".28"/><rect x="24" y="65" width="142" height="22" rx="11" fill="#477B72" opacity=".16"/></g><g transform="translate(355 320)"><rect width="190" height="112" rx="18" fill="#fff" opacity=".78"/><circle cx="32" cy="34" r="10" fill="#D59A56" opacity=".82"/><rect x="54" y="25" width="102" height="14" rx="7" fill="#477B72" opacity=".28"/><rect x="24" y="65" width="142" height="22" rx="11" fill="#D59A56" opacity=".42"/></g><g transform="translate(590 320)"><rect width="190" height="112" rx="18" fill="#fff" opacity=".78"/><circle cx="32" cy="34" r="10" fill="#477B72" opacity=".82"/><rect x="54" y="25" width="102" height="14" rx="7" fill="#477B72" opacity=".28"/><rect x="24" y="65" width="142" height="22" rx="11" fill="#477B72" opacity=".16"/></g><g transform="translate(825 320)"><rect width="190" height="112" rx="18" fill="#fff" opacity=".78"/><circle cx="32" cy="34" r="10" fill="#477B72" opacity=".82"/><rect x="54" y="25" width="102" height="14" rx="7" fill="#477B72" opacity=".28"/><rect x="24" y="65" width="142" height="22" rx="11" fill="#477B72" opacity=".16"/></g><path d="M140 535h920" stroke="#477B72" stroke-width="14" stroke-linecap="round" opacity=".16"/><path d="M300 512l30 30 62-72" fill="none" stroke="#D59A56" stroke-width="16" stroke-linecap="round" stroke-linejoin="round" opacity=".9"/></svg>