<svg xmlns="http://www.w3.org/2000/svg" viewBox="0 0 1200 720"><defs><linearGradient id="sky" x1="0" y1="0" x2="1" y2="1"><stop stop-color="#403E52"/><stop offset="1" stop-color="#77728B"/></linearGradient><filter id="soft"><feGaussianBlur stdDeviation="16"/></filter></defs><rect width="1200" height="720" fill="url(#sky)"/><rect x="545" y="45" width="600" height="390" rx="20" fill="#17232E" opacity=".56"/><path d="M622 70l-14 28" stroke="#D9EDF2" stroke-width="5" stroke-linecap="round" opacity=".5"/><path d="M689 111l-14 28" stroke="#D9EDF2" stroke-width="5" stroke-linecap="round" opacity=".5"/><path d="M756 152l-14 28" stroke="#D9EDF2" stroke-width="5" stroke-linecap="round" opacity=".5"/><path d="M823 193l-14 28" stroke="#D9EDF2" stroke-width="5" stroke-linecap="round" opacity=".5"/><path d="M890 234l-14 28" stroke="#D9EDF2" stroke-width="5" stroke-linecap="round" opacity=".5"/><path d="M957 275l-14 28" stroke="#D9EDF2" stroke-width="5" stroke-linecap="round" opacity=".5"/><path d="M1024 316l-14 28" stroke="#D9EDF2" stroke-width="5" stroke-linecap="round" opacity=".5"/><path d="M1091 357l-14 28" stroke="#D9EDF2" stroke-width="5" stroke-linecap="round" opacity=".5"/><path d="M598 398l-14 28" stroke="#D9EDF2" stroke-width="5" stroke-linecap="round" opacity=".5"/><path d="M665 109l-14 28" stroke="#D9EDF2" stroke-width="5" stroke-linecap="round" opacity=".5"/><path d="M732 150l-14 28" stroke="#D9EDF2" stroke-width="5" stroke-linecap="round" opacity=".5"/><path d="M799 191l-14 28" stroke="#D9EDF2" stroke-width="5" stroke-linecap="round" opacity=".5"/><path d="M866 232l-14 28" stroke="#D9EDF2" stroke-width="5" stroke-linecap="round" opacity=".5"/><path d="M933 273l-14 28" stroke="#D9EDF2" stroke-width="5" stroke-linecap="round" opacity=".5"/><path d="M1000 314l-14 28" stroke="#D9EDF2" stroke-width="5" stroke-linecap="round" opacity=".5"/><path d="M1067 355l-14 28" stroke="#D9EDF2" stroke-width="5" stroke-linecap="round" opacity=".5"/><path d="M574 396l-14 28" stroke="#D9EDF2" stroke-width="5" stroke-linecap="round" opacity=".5"/><path d="M641 107l-14 28" stroke="#D9EDF2" stroke-width="5" stroke-linecap="round" opacity=".5"/><path d="M845 45v390M545 240h600" stroke="#fff" stroke-width="10" opacity=".12"/><rect x="0" y="545" width="1200" height="175" fill="#F0C99A" opacity=".34"/><g transform="translate(230 255)"><path d="M85 0h150l65 175H20z" fill="#B6C8D8" opacity=".94"/><rect x="145" y="170" width="28" height="245" rx="12" fill="#B6C8D8"/><rect x="65" y="395" width="190" height="24" rx="12" fill="#B6C8D8"/><ellipse cx="160" cy="190" rx="250" ry="190" fill="#B6C8D8" opacity=".13" filter="url(#soft)"/></g><g transform="translate(620 470)"><path d="M0 60q150-90 320 0v190H0z" fill="#fff" opacity=".3"/><path d="M25 90q120-60 270 0" fill="none" stroke="#fff" stroke-width="26" opacity=".35"/></g></svg>